<svg class="svg-icon" style="width: 2em; height: 2em;vertical-align: middle;fill: currentColor;overflow: hidden;" viewBox="0 0 1024 1024" version="1.1" xmlns="http://www.w3.org/2000/svg"><path d="M489.488384 322.7136c-192.356352 0-348.289024 186.554368-348.289024 186.554368s155.932672 186.554368 348.289024 186.554368c192.354304 0 348.286976-186.554368 348.286976-186.554368s-155.932672-186.554368-348.286976-186.554368zM489.486336 632.832c-68.759552 0-124.502016-55.742464-124.502016-124.502016s55.742464-124.502016 124.502016-124.502016 124.502016 55.742464 124.502016 124.502016S558.245888 632.832 489.486336 632.832z" fill="#000" /><path d="M489.486336 508.332032m-96.086016 0a96.086016 96.086016 0 1 0 192.172032 0 96.086016 96.086016 0 1 0-192.172032 0Z" fill="#F29727" /><path d="M434.753536 460.494848m-23.627776 0a23.627776 23.627776 0 1 0 47.255552 0 23.627776 23.627776 0 1 0-47.255552 0Z" fill="#FFFFFF" /></svg>